<?xml version="1.0" encoding="UTF-8"?>
<svg version="1.1" xmlns="http://www.w3.org/2000/svg" width="319" height="319">
<path d="M0 0 C75.24 0 150.48 0 228 0 C228 1.32 228 2.64 228 4 C231.96 4 235.92 4 240 4 C240 5.32 240 6.64 240 8 C241.98 8 243.96 8 246 8 C246 8.66 246 9.32 246 10 C248.64 10 251.28 10 254 10 C254 11.32 254 12.64 254 14 C255.98 14 257.96 14 260 14 C260 15.32 260 16.64 260 18 C261.32 18 262.64 18 264 18 C264 19.32 264 20.64 264 22 C265.32 22 266.64 22 268 22 C268 22.66 268 23.32 268 24 C269.98 24 271.96 24 274 24 C274 25.32 274 26.64 274 28 C275.32 28 276.64 28 278 28 C278 30.64 278 33.28 278 36 C279.32 36 280.64 36 282 36 C282 37.32 282 38.64 282 40 C283.32 40 284.64 40 286 40 C286 40.66 286 41.32 286 42 C287.32 42 288.64 42 290 42 C290 44.64 290 47.28 290 50 C290.66 50 291.32 50 292 50 C292 52.64 292 55.28 292 58 C293.32 58 294.64 58 296 58 C296 59.98 296 61.96 296 64 C297.32 64 298.64 64 300 64 C300 67.3 300 70.6 300 74 C301.32 74 302.64 74 304 74 C304 93.14 304 112.28 304 132 C302.68 132 301.36 132 300 132 C300 135.3 300 138.6 300 142 C298.68 142 297.36 142 296 142 C296 144.64 296 147.28 296 150 C294.68 150 293.36 150 292 150 C292 151.98 292 153.96 292 156 C291.34 156 290.68 156 290 156 C290 158.64 290 161.28 290 164 C288.68 164 287.36 164 286 164 C286 165.32 286 166.64 286 168 C284.68 168 283.36 168 282 168 C282 169.98 282 171.96 282 174 C280.68 174 279.36 174 278 174 C278 175.32 278 176.64 278 178 C276.68 178 275.36 178 274 178 C274 179.32 274 180.64 274 182 C273.34 182 272.68 182 272 182 C272 183.32 272 184.64 272 186 C269.36 186 266.72 186 264 186 C264 186.66 264 187.32 264 188 C262.68 188 261.36 188 260 188 C260 189.32 260 190.64 260 192 C258.68 192 257.36 192 256 192 C256 193.32 256 194.64 256 196 C254.02 196 252.04 196 250 196 C250 197.32 250 198.64 250 200 C247.36 200 244.72 200 242 200 C242 201.32 242 202.64 242 204 C240.02 204 238.04 204 236 204 C236 204.66 236 205.32 236 206 C232.04 206 228.08 206 224 206 C224 207.32 224 208.64 224 210 C222.02 210 220.04 210 218 210 C218 211.32 218 212.64 218 214 C219.32 214 220.64 214 222 214 C222 215.32 222 216.64 222 218 C222.66 218 223.32 218 224 218 C224 218.66 224 219.32 224 220 C225.32 220 226.64 220 228 220 C228 221.32 228 222.64 228 224 C229.32 224 230.64 224 232 224 C232 225.32 232 226.64 232 228 C233.32 228 234.64 228 236 228 C236 229.32 236 230.64 236 232 C237.32 232 238.64 232 240 232 C240 233.32 240 234.64 240 236 C240.66 236 241.32 236 242 236 C242 236.66 242 237.32 242 238 C243.32 238 244.64 238 246 238 C246 239.32 246 240.64 246 242 C247.32 242 248.64 242 250 242 C250 243.32 250 244.64 250 246 C251.32 246 252.64 246 254 246 C254 247.32 254 248.64 254 250 C254.66 250 255.32 250 256 250 C256 250.66 256 251.32 256 252 C257.32 252 258.64 252 260 252 C260 253.32 260 254.64 260 256 C261.32 256 262.64 256 264 256 C264 257.32 264 258.64 264 260 C265.32 260 266.64 260 268 260 C268 261.32 268 262.64 268 264 C269.32 264 270.64 264 272 264 C272 265.32 272 266.64 272 268 C272.66 268 273.32 268 274 268 C274 268.66 274 269.32 274 270 C275.32 270 276.64 270 278 270 C278 271.32 278 272.64 278 274 C279.32 274 280.64 274 282 274 C282 275.32 282 276.64 282 278 C283.32 278 284.64 278 286 278 C286 279.32 286 280.64 286 282 C287.32 282 288.64 282 290 282 C290 283.32 290 284.64 290 286 C290.66 286 291.32 286 292 286 C292 286.66 292 287.32 292 288 C293.32 288 294.64 288 296 288 C296 289.32 296 290.64 296 292 C297.32 292 298.64 292 300 292 C300 293.32 300 294.64 300 296 C301.32 296 302.64 296 304 296 C304 297.98 304 299.96 304 302 C203.68 302 103.36 302 0 302 C0 202.34 0 102.68 0 0 Z " fill="#C76480" transform="translate(11,6)"/>
<path d="M0 0 C75.24 0 150.48 0 228 0 C228 1.32 228 2.64 228 4 C231.96 4 235.92 4 240 4 C240 5.32 240 6.64 240 8 C241.98 8 243.96 8 246 8 C246 8.66 246 9.32 246 10 C248.64 10 251.28 10 254 10 C254 11.32 254 12.64 254 14 C255.98 14 257.96 14 260 14 C260 15.32 260 16.64 260 18 C261.32 18 262.64 18 264 18 C264 19.32 264 20.64 264 22 C265.32 22 266.64 22 268 22 C268 22.66 268 23.32 268 24 C269.98 24 271.96 24 274 24 C274 25.32 274 26.64 274 28 C275.32 28 276.64 28 278 28 C278 30.64 278 33.28 278 36 C279.32 36 280.64 36 282 36 C282 37.32 282 38.64 282 40 C283.32 40 284.64 40 286 40 C286 40.66 286 41.32 286 42 C287.32 42 288.64 42 290 42 C290 44.64 290 47.28 290 50 C290.66 50 291.32 50 292 50 C292 52.64 292 55.28 292 58 C293.32 58 294.64 58 296 58 C296 59.98 296 61.96 296 64 C297.32 64 298.64 64 300 64 C300 67.3 300 70.6 300 74 C301.32 74 302.64 74 304 74 C304 93.14 304 112.28 304 132 C302.68 132 301.36 132 300 132 C300 135.3 300 138.6 300 142 C298.68 142 297.36 142 296 142 C296 144.64 296 147.28 296 150 C295.24203125 150.05414063 294.4840625 150.10828125 293.703125 150.1640625 C290.81751293 150.76130303 290.81751293 150.76130303 289.296875 153.3359375 C288.78640625 154.33882812 288.2759375 155.34171875 287.75 156.375 C274.78410018 180.03355746 252.16397082 196.49077491 226.75 204.4375 C225.93442627 204.69700439 225.11885254 204.95650879 224.27856445 205.22387695 C218.57609125 206.8968096 212.94168274 207.79326486 207 207 C204 205 204 205 203 202 C201.37571904 200.353524 201.37571904 200.353524 199.375 198.75 C195.90794304 195.81729232 192.70412958 192.73717798 189.53125 189.4921875 C187.95759342 187.88579973 187.95759342 187.88579973 185.75 186.375 C184 185 184 185 182.4375 182.375 C181.16604252 179.69542803 181.16604252 179.69542803 178 179 C173.22727273 174.68181818 173.22727273 174.68181818 172 171 C171.34 171 170.68 171 170 171 C167.875 169.125 167.875 169.125 166 167 C166 166.34 166 165.68 166 165 C165.34 165 164.68 165 164 165 C162.50370821 163.3214487 161.07707339 161.58041102 159.6875 159.8125 C155.83359745 154.92478318 152.15512628 150.37928082 146.875 147 C143.81539762 144.87158095 142.85687109 143.1486075 141 140 C139.35394174 138.96642853 137.69036558 137.95939668 136 137 C136 136.34 136 135.68 136 135 C135.34 135 134.68 135 134 135 C132.96210419 133.35666496 131.96432076 131.68756133 131 130 C128.77810176 127.77810176 126.91517292 127.07401108 124 126 C124 125.01 124 124.02 124 123 C123.34 123 122.68 123 122 123 C122 122.34 122 121.68 122 121 C121.34 121 120.68 121 120 121 C119.67 120.01 119.34 119.02 119 118 C115.87580927 114.52495546 115.87580927 114.52495546 112 112 C109.09314759 110.54657379 107.22951854 108.34099446 105 106 C104.2575 105.29875 103.515 104.5975 102.75 103.875 C101 102 101 102 100 99 C98.01399663 97.6459068 96.01182457 96.31542376 94 95 C92.30696046 93.36013029 90.64337716 91.68963519 89 90 C82.14981901 82.85819905 82.14981901 82.85819905 74.75 76.3125 C72.53284301 74.44807253 70.88712005 72.76923855 69.04345703 70.57910156 C64.14953403 64.93147077 58.84134187 59.69700886 53.5546875 54.421875 C52.45551231 53.32202461 51.35648547 52.22202594 50.25759888 51.12188721 C47.9681106 48.830934 45.67684732 46.54177545 43.38427734 44.25390625 C40.45457086 41.32991667 37.52940499 38.40143215 34.60554314 35.47159958 C32.34249777 33.20493324 30.07706697 30.9406631 27.8109169 28.67710114 C26.73136253 27.59821073 25.65254187 26.51858561 24.57448959 25.43819427 C23.06753603 23.92868663 21.55738908 22.42244561 20.04638672 20.91699219 C19.19035858 20.06175964 18.33433044 19.2065271 17.45236206 18.32537842 C15.06645361 16.06301264 12.58342957 14.03078225 10 12 C8.87919888 10.86928029 7.79061584 9.70492361 6.75 8.5 C6.24984375 7.9328125 5.7496875 7.365625 5.234375 6.78125 C4 5 4 5 3.515625 2.84375 C3.26039062 1.93109375 3.26039062 1.93109375 3 1 C2.01 0.67 1.02 0.34 0 0 Z " fill="#5D6B90" transform="translate(11,6)"/>
<path d="M0 0 C0.99 0 1.98 0 3 0 C3.391875 0.886875 3.78375 1.77375 4.1875 2.6875 C7.18402984 8.1639166 11.9748353 11.92759636 16.56933594 16.07983398 C22.84584816 21.79458616 28.88714791 27.72347893 34.890625 33.72265625 C35.97199765 34.80080427 37.05344034 35.87888205 38.13494873 36.95689392 C40.37182799 39.1878594 42.6067075 41.42080547 44.84033203 43.6550293 C47.70684129 46.52164158 50.58025647 49.38122795 53.45532608 52.23925114 C55.67710104 54.44995456 57.89436388 56.66514017 60.11034393 58.88165092 C61.16932735 59.93945371 62.22993403 60.995634 63.29218292 62.05015755 C64.76367856 63.51192032 66.2287806 64.97980284 67.69238281 66.44946289 C68.52666809 67.28232315 69.36095337 68.11518341 70.22052002 68.97328186 C72 71 72 71 72 73 C73.98 73.99 73.98 73.99 76 75 C76 75.66 76 76.32 76 77 C76.55042969 77.22171875 77.10085937 77.4434375 77.66796875 77.671875 C80.75023452 79.42726924 82.85027225 81.70070621 85.3125 84.25 C90.23239828 89.28074379 95.1233759 94.0822506 101 98 C101.433125 98.763125 101.86625 99.52625 102.3125 100.3125 C103.85671691 102.77180842 104.97104712 103.92890593 107.1875 105.6875 C108.115625 106.450625 109.04375 107.21375 110 108 C110 108.66 110 109.32 110 110 C110.556875 110.061875 111.11375 110.12375 111.6875 110.1875 C115.027159 111.3608937 116.71500747 113.34446814 119 116 C119.8125 118.3125 119.8125 118.3125 120 120 C120.66 120 121.32 120 122 120 C122 120.66 122 121.32 122 122 C122.66 122 123.32 122 124 122 C124.33 122.99 124.66 123.98 125 125 C126.6635479 125.67441131 128.33066942 126.3400321 130 127 C132.3125 128.9375 132.3125 128.9375 134 131 C134 131.99 134 132.98 134 134 C134.66 134 135.32 134 136 134 C136 134.66 136 135.32 136 136 C136.763125 136.268125 137.52625 136.53625 138.3125 136.8125 C140.90483979 137.95795247 142.30075537 138.76415181 144 141 C144 141.99 144 142.98 144 144 C145.11375 144.3403125 145.11375 144.3403125 146.25 144.6875 C149.57697408 146.27537399 150.81216307 148.06009412 153 151 C155.17862273 153.2359549 157.39483463 155.422017 159.65234375 157.578125 C161.13650734 159.01689065 162.57194699 160.50552592 164 162 C164 162.66 164 163.32 164 164 C164.66 164 165.32 164 166 164 C166 164.66 166 165.32 166 166 C167.32 166.66 168.64 167.32 170 168 C170 168.66 170 169.32 170 170 C170.66 170 171.32 170 172 170 C176.76744186 174.30232558 176.76744186 174.30232558 178 178 C178.8971875 178.1546875 178.8971875 178.1546875 179.8125 178.3125 C182.67376151 179.21175362 183.24105595 180.78873507 184.74609375 183.26171875 C186.7362433 186.02064881 189.31300966 188.01815177 191.90625 190.1953125 C194.57589292 192.49638531 197.01320501 194.98282801 199.45703125 197.51953125 C201.13707372 199.21835505 201.13707372 199.21835505 204 201 C204 201.99 204 202.98 204 204 C204.99 204.33 205.98 204.66 207 205 C201.6830595 210.3169405 188.31329512 208.10972127 180.91813242 208.12525737 C178.36752819 208.12439156 175.81695557 208.11901855 173.26635742 208.11352539 C171.41224672 208.11324276 169.55813591 208.11340274 167.70402527 208.1139679 C162.70907665 208.1142529 157.71415242 208.10840443 152.71920943 208.10139394 C147.48487076 208.09511072 142.25053143 208.09455269 137.01618958 208.09336853 C127.1213959 208.0902698 117.22661338 208.08207618 107.3318246 208.07201904 C96.05967139 208.06081247 84.78751763 208.05533603 73.51536024 208.05032361 C50.34356733 208.03989225 27.17178429 208.02232122 4 208 C4 208.66 4 209.32 4 210 C3.01 210.33 2.02 210.66 1 211 C-0.26140553 207.21578341 -0.13459595 203.68441777 -0.12025452 199.74275208 C-0.12110894 198.89080991 -0.12196337 198.03886774 -0.12284368 197.16110915 C-0.12449561 194.2959429 -0.11898178 191.43083472 -0.11352539 188.56567383 C-0.11324343 186.51599631 -0.11340142 184.46631869 -0.1139679 182.41664124 C-0.11425553 176.84260769 -0.1083643 171.26859553 -0.10139394 165.69456697 C-0.09515473 159.87293242 -0.09455615 154.05129741 -0.09336853 148.22966003 C-0.09025689 137.20122298 -0.08204575 126.1727958 -0.07201904 115.14436311 C-0.06085272 102.59072475 -0.05534614 90.03708594 -0.05032361 77.48344386 C-0.03986301 51.65562375 -0.02226679 25.82781243 0 0 Z " fill="#A64A6C" transform="translate(11,7)"/>
<path d="M0 0 C0.33 0 0.66 0 1 0 C1 1.98 1 3.96 1 6 C0.34 6 -0.32 6 -1 6 C-1 8.64 -1 11.28 -1 14 C-2.32 14 -3.64 14 -5 14 C-5 15.32 -5 16.64 -5 18 C-6.32 18 -7.64 18 -9 18 C-9 19.98 -9 21.96 -9 24 C-10.32 24 -11.64 24 -13 24 C-13 25.32 -13 26.64 -13 28 C-14.32 28 -15.64 28 -17 28 C-17 29.32 -17 30.64 -17 32 C-17.66 32 -18.32 32 -19 32 C-19 33.32 -19 34.64 -19 36 C-21.64 36 -24.28 36 -27 36 C-27 36.66 -27 37.32 -27 38 C-28.32 38 -29.64 38 -31 38 C-31 39.32 -31 40.64 -31 42 C-32.32 42 -33.64 42 -35 42 C-35 43.32 -35 44.64 -35 46 C-36.98 46 -38.96 46 -41 46 C-41 47.32 -41 48.64 -41 50 C-43.64 50 -46.28 50 -49 50 C-49 51.32 -49 52.64 -49 54 C-50.98 54 -52.96 54 -55 54 C-55 54.66 -55 55.32 -55 56 C-58.96 56 -62.92 56 -67 56 C-67 57.32 -67 58.64 -67 60 C-68.98 60 -70.96 60 -73 60 C-73 61.32 -73 62.64 -73 64 C-71.68 64 -70.36 64 -69 64 C-69 65.32 -69 66.64 -69 68 C-68.34 68 -67.68 68 -67 68 C-67 68.66 -67 69.32 -67 70 C-65.68 70 -64.36 70 -63 70 C-63 71.32 -63 72.64 -63 74 C-61.68 74 -60.36 74 -59 74 C-59 75.32 -59 76.64 -59 78 C-57.68 78 -56.36 78 -55 78 C-55 79.32 -55 80.64 -55 82 C-53.68 82 -52.36 82 -51 82 C-51 83.32 -51 84.64 -51 86 C-50.34 86 -49.68 86 -49 86 C-49 86.66 -49 87.32 -49 88 C-47.68 88 -46.36 88 -45 88 C-45 89.32 -45 90.64 -45 92 C-43.68 92 -42.36 92 -41 92 C-41 93.32 -41 94.64 -41 96 C-39.68 96 -38.36 96 -37 96 C-37 97.32 -37 98.64 -37 100 C-36.34 100 -35.68 100 -35 100 C-35 100.66 -35 101.32 -35 102 C-33.68 102 -32.36 102 -31 102 C-31 103.32 -31 104.64 -31 106 C-29.68 106 -28.36 106 -27 106 C-27 107.32 -27 108.64 -27 110 C-25.68 110 -24.36 110 -23 110 C-23 111.32 -23 112.64 -23 114 C-21.68 114 -20.36 114 -19 114 C-19 115.32 -19 116.64 -19 118 C-18.34 118 -17.68 118 -17 118 C-17 118.66 -17 119.32 -17 120 C-15.68 120 -14.36 120 -13 120 C-13 121.32 -13 122.64 -13 124 C-11.68 124 -10.36 124 -9 124 C-9 125.32 -9 126.64 -9 128 C-7.68 128 -6.36 128 -5 128 C-5 129.32 -5 130.64 -5 132 C-3.68 132 -2.36 132 -1 132 C-1 133.32 -1 134.64 -1 136 C-0.34 136 0.32 136 1 136 C1 136.66 1 137.32 1 138 C2.32 138 3.64 138 5 138 C5 139.32 5 140.64 5 142 C6.32 142 7.64 142 9 142 C9 143.32 9 144.64 9 146 C10.32 146 11.64 146 13 146 C13 147.98 13 149.96 13 152 C-87.32 152 -187.64 152 -291 152 C-291 151.34 -291 150.68 -291 150 C-191.67 149.67 -92.34 149.34 10 149 C6.04 145.535 6.04 145.535 2 142 C0.51250003 140.5867549 -0.96052662 139.15787215 -2.40893555 137.70458984 C-3.17300217 136.94044769 -3.93706879 136.17630554 -4.72428894 135.38900757 C-5.52039078 134.58774445 -6.31649261 133.78648132 -7.13671875 132.9609375 C-7.97918655 132.11705475 -8.82165436 131.273172 -9.68965149 130.40371704 C-12.35797903 127.72983728 -15.02279732 125.05249171 -17.6875 122.375 C-19.48739721 120.57008012 -21.28752532 118.76539046 -23.08789062 116.9609375 C-26.38643997 113.65425342 -29.68368442 110.34628083 -32.97924805 107.03662109 C-35.9824683 104.02070069 -38.98890297 101.00805995 -42 98 C-45.80208333 94.19791667 -49.60416667 90.39583333 -53.40625 86.59375 C-54.02169678 85.97902832 -54.63714355 85.36430664 -55.27124023 84.73095703 C-56.34925581 83.65157129 -57.42474129 82.56964539 -58.49633789 81.48388672 C-60.4083766 79.54956977 -62.27707343 77.78686659 -64.4375 76.125 C-67.14985457 73.87573036 -69.20597826 71.44792631 -71.44140625 68.7421875 C-72.97986129 67.02251094 -74.57156088 65.62176452 -76.375 64.1875 C-77.24125 63.465625 -78.1075 62.74375 -79 62 C-79 61.34 -79 60.68 -79 60 C-79.99 59.67 -80.98 59.34 -82 59 C-82 58.34 -82 57.68 -82 57 C-81.030625 56.85304687 -80.06125 56.70609375 -79.0625 56.5546875 C-51.58111762 52.08234262 -26.58741645 38.08701117 -9.8125 15.5625 C-6.66986559 11.11252968 -3.82878598 6.53108825 -1.12890625 1.80078125 C-0.75636719 1.20652344 -0.38382812 0.61226562 0 0 Z " fill="#F9E7EA" transform="translate(302,156)"/>
<path d="M0 0 C0.33333333 1.33333333 0.66666667 2.66666667 1 4 C1.20625 4.5775 1.4125 5.155 1.625 5.75 C2.01091226 8.06547358 1.83361288 9.69037236 1.5 12 C1.08119262 14.92077352 0.77692247 17.22027834 2 20 C2.66 20.33 3.32 20.66 4 21 C4 21.66 4 22.32 4 23 C4.99 23 5.98 23 7 23 C7.33 23.66 7.66 24.32 8 25 C8.61037607 24.99886084 9.22075214 24.99772168 9.84962445 24.996548 C45.99889625 24.92946201 82.14815886 24.87796475 118.29748012 24.84680401 C122.63476225 24.84305174 126.97204424 24.83916879 131.30932617 24.83520508 C132.17282691 24.83441815 133.03632765 24.83363122 133.92599507 24.83282044 C147.92078447 24.81975472 161.91553701 24.79609449 175.91030452 24.76854161 C190.26260421 24.7405198 204.61488455 24.72383058 218.96721047 24.71773452 C227.82846338 24.71361136 236.68961215 24.70057337 245.55083301 24.6762506 C251.62142217 24.66043317 257.69195724 24.65559054 263.76256553 24.65949587 C267.26874504 24.66142367 270.77474216 24.65840016 274.28088951 24.64238358 C278.0765544 24.62517041 281.87197904 24.63101007 285.66767883 24.63923645 C287.34129713 24.62612866 287.34129713 24.62612866 289.0487259 24.61275607 C290.06140037 24.61872922 291.07407484 24.62470236 292.11743641 24.63085651 C293.43259777 24.62914777 293.43259777 24.62914777 294.77432805 24.62740451 C297 25 297 25 300 28 C200.34 28 100.68 28 -2 28 C-1 1 -1 1 0 0 Z " fill="#A83D56" transform="translate(13,278)"/>
<path d="M0 0 C0.99 0 1.98 0 3 0 C5.125 5.625 5.125 5.625 4 9 C4.66 9.33 5.32 9.66 6 10 C5.34 10.66 4.68 11.32 4 12 C4.32117426 13.33631433 4.65657551 14.66923011 5 16 C4.60317295 18.50497073 3.99170626 20.90807129 3.375 23.3671875 C2.85869118 26.00893065 2.85869118 26.00893065 3.47421265 28.65655518 C4.07994092 32.50833866 4.09742379 36.24368011 4.03759766 40.12792969 C4.02959641 40.92275253 4.02159515 41.71757538 4.01335144 42.53648376 C3.98549699 45.16503609 3.94992316 47.79342063 3.9140625 50.421875 C3.89222833 52.28240524 3.87078189 54.14294007 3.84970093 56.003479 C3.80417472 59.92082539 3.75502399 63.83810405 3.703125 67.75537109 C3.63816663 72.66756083 3.58030374 77.57979889 3.5249815 82.49210548 C3.31009353 101.4083336 3.0110903 120.31416793 2.39699364 139.22188187 C1.95760633 152.85895996 1.88229405 166.48183781 1.9375 180.125 C1.9425463 182.37890521 1.94710345 184.63281156 1.95117188 186.88671875 C1.96188136 192.25783882 1.97834992 197.6289134 2 203 C2.66 203 3.32 203 4 203 C4.33 203.99 4.66 204.98 5 206 C3.35 206.33 1.7 206.66 0 207 C0 138.69 0 70.38 0 0 Z " fill="#913757" transform="translate(11,7)"/>
<path d="M0 0 C0.33 0 0.66 0 1 0 C1 1.98 1 3.96 1 6 C0.34 6 -0.32 6 -1 6 C-1 8.64 -1 11.28 -1 14 C-2.32 14 -3.64 14 -5 14 C-5 15.32 -5 16.64 -5 18 C-6.32 18 -7.64 18 -9 18 C-9 19.98 -9 21.96 -9 24 C-10.32 24 -11.64 24 -13 24 C-13 25.32 -13 26.64 -13 28 C-14.32 28 -15.64 28 -17 28 C-17 29.32 -17 30.64 -17 32 C-17.66 32 -18.32 32 -19 32 C-19 33.32 -19 34.64 -19 36 C-21.64 36 -24.28 36 -27 36 C-27 36.66 -27 37.32 -27 38 C-28.32 38 -29.64 38 -31 38 C-31 39.32 -31 40.64 -31 42 C-32.32 42 -33.64 42 -35 42 C-35 43.32 -35 44.64 -35 46 C-36.98 46 -38.96 46 -41 46 C-41 47.32 -41 48.64 -41 50 C-43.64 50 -46.28 50 -49 50 C-49 51.32 -49 52.64 -49 54 C-50.98 54 -52.96 54 -55 54 C-55 54.66 -55 55.32 -55 56 C-58.96 56 -62.92 56 -67 56 C-67 57.32 -67 58.64 -67 60 C-68.98 60 -70.96 60 -73 60 C-73.33 61.98 -73.66 63.96 -74 66 C-75.7074998 64.71937515 -77.37373596 63.38232443 -79 62 C-79 61.34 -79 60.68 -79 60 C-79.99 59.67 -80.98 59.34 -82 59 C-82 58.34 -82 57.68 -82 57 C-81.030625 56.85304687 -80.06125 56.70609375 -79.0625 56.5546875 C-51.58111762 52.08234262 -26.58741645 38.08701117 -9.8125 15.5625 C-6.66986559 11.11252968 -3.82878598 6.53108825 -1.12890625 1.80078125 C-0.75636719 1.20652344 -0.38382812 0.61226562 0 0 Z " fill="#F4F7F8" transform="translate(302,156)"/>
<path d="M0 0 C50.82 0 101.64 0 154 0 C149.49607772 3.00261485 145.97384554 3.1687118 140.69140625 2.56640625 C133.10170016 1.8419713 125.55080413 1.89007902 117.9375 1.9375 C116.52409015 1.94253224 115.11067854 1.94709205 113.69726562 1.95117188 C110.13147867 1.96240291 106.56575474 1.98111205 103 2 C100.92835227 2 98.85668012 1.98749711 96.78515625 1.96484375 C95.55667969 1.95582031 94.32820313 1.94679688 93.0625 1.9375 C91.83660156 1.92589844 90.61070313 1.91429687 89.34765625 1.90234375 C86.23628319 1.85373461 86.23628319 1.85373461 84.27041626 2.5 C80.96760723 3.2273576 77.6897209 3.12175505 74.32568359 3.09765625 C73.55778 3.09619598 72.7898764 3.09473572 71.998703 3.0932312 C70.33503957 3.08943177 68.67138016 3.08332212 67.00773239 3.07516479 C64.37726787 3.06239725 61.74685378 3.0558849 59.11636353 3.05102539 C53.53588636 3.03960162 47.95545082 3.0203487 42.375 3 C35.90212937 2.97642952 29.4292823 2.95603624 22.95637894 2.94406128 C20.36048483 2.93756146 17.76466284 2.92505532 15.16879272 2.91235352 C13.58437158 2.90872246 11.99994976 2.90537054 10.41552734 2.90234375 C9.32767693 2.89459427 9.32767693 2.89459427 8.21784973 2.88668823 C4.48433673 2.82920917 4.48433673 2.82920917 1 4 C0.67 2.68 0.34 1.36 0 0 Z " fill="#546383" transform="translate(14,7)"/>
<path d="M0 0 C1.32 0 2.64 0 4 0 C4 1.98 4 3.96 4 6 C5.32 6 6.64 6 8 6 C8 9.3 8 12.6 8 16 C9.32 16 10.64 16 12 16 C12 35.14 12 54.28 12 74 C10.68 74 9.36 74 8 74 C8 77.3 8 80.6 8 84 C6.68 84 5.36 84 4 84 C4 86.64 4 89.28 4 92 C2.68 92 1.36 92 0 92 C1.64945216 86.39654195 3.35521149 80.8252321 5.25390625 75.30078125 C5.50011719 74.54152344 5.74632812 73.78226562 6 73 C6.33845947 71.97672607 6.67691895 70.95345215 7.02563477 69.89916992 C8.2152123 65.69348102 8.3233637 61.66201039 8.3359375 57.3125 C8.3425943 56.49233398 8.3492511 55.67216797 8.35610962 54.82714844 C8.36619084 53.09588849 8.37092805 51.36459005 8.37060547 49.63330078 C8.37494193 47.03479619 8.41120593 44.43804448 8.44921875 41.83984375 C8.54169133 28.1103703 6.25443774 16.53038205 0.734375 3.85546875 C0 2 0 2 0 0 Z " fill="#F1F5F9" transform="translate(303,64)"/>
<path d="M0 0 C75.24 0 150.48 0 228 0 C228 1.32 228 2.64 228 4 C221.44476933 3.1175651 221.44476933 3.1175651 219.00819755 2.47351032 C215.49238433 1.64452123 211.87616784 1.84600486 208.28082275 1.84178162 C206.94649991 1.83437465 206.94649991 1.83437465 205.58522105 1.82681805 C202.59880812 1.81143656 199.61241669 1.80308064 196.62597656 1.79467773 C194.48748078 1.78509973 192.34898689 1.77508969 190.210495 1.76467896 C184.39894585 1.73761548 178.58738857 1.7166137 172.7758112 1.69667697 C166.70459062 1.67482634 160.63339515 1.64743313 154.56219482 1.62062073 C143.06277718 1.57068137 131.56334562 1.52574713 120.06390071 1.48259836 C106.97335117 1.43323663 93.88282683 1.37831455 80.79230165 1.32291877 C53.86155794 1.20907963 26.93079006 1.10224478 0 1 C0 0.67 0 0.34 0 0 Z " fill="#D6DCDA" transform="translate(11,6)"/>
<path d="M0 0 C3.96 0 7.92 0 12 0 C12 1.32 12 2.64 12 4 C13.98 4 15.96 4 18 4 C18 4.66 18 5.32 18 6 C20.64 6 23.28 6 26 6 C26 7.32 26 8.64 26 10 C27.98 10 29.96 10 32 10 C32 11.32 32 12.64 32 14 C33.32 14 34.64 14 36 14 C36 15.32 36 16.64 36 18 C37.32 18 38.64 18 40 18 C40 18.66 40 19.32 40 20 C41.98 20 43.96 20 46 20 C46 21.32 46 22.64 46 24 C47.32 24 48.64 24 50 24 C50 26.64 50 29.28 50 32 C49.13375 31.236875 48.2675 30.47375 47.375 29.6875 C32.6444088 17.15019602 18.21227888 7.73395186 0 1 C0 0.67 0 0.34 0 0 Z " fill="#F6F7F9" transform="translate(239,10)"/>
<path d="M0 0 C63.36 0 126.72 0 192 0 C192 0.33 192 0.66 192 1 C129.96 1 67.92 1 4 1 C4 1.66 4 2.32 4 3 C3.01 3.33 2.02 3.66 1 4 C0.67 2.68 0.34 1.36 0 0 Z " fill="#B65875" transform="translate(11,214)"/>
<path d="M0 0 C0.33 0 0.66 0 1 0 C1.13290313 15.95595526 1.26334405 31.91192885 1.39115143 47.86792564 C1.45059897 55.28305353 1.51075001 62.69817426 1.57275391 70.11328125 C1.87582632 106.40952705 2.08189748 142.70209257 2 179 C2.66 179 3.32 179 4 179 C4.33 179.99 4.66 180.98 5 182 C3.35 182.33 1.7 182.66 0 183 C0 122.61 0 62.22 0 0 Z " fill="#88435A" transform="translate(11,31)"/>
<path d="M0 0 C0.33333333 1.33333333 0.66666667 2.66666667 1 4 C1.20625 4.5775 1.4125 5.155 1.625 5.75 C2.01091226 8.06547358 1.83361288 9.69037236 1.5 12 C1.08119262 14.92077352 0.77692247 17.22027834 2 20 C2.66 20.33 3.32 20.66 4 21 C4 21.66 4 22.32 4 23 C4.99 23 5.98 23 7 23 C7.33 23.66 7.66 24.32 8 25 C50.57 25.495 50.57 25.495 94 26 C94 26.33 94 26.66 94 27 C62.32 27.33 30.64 27.66 -2 28 C-1 1 -1 1 0 0 Z " fill="#BD4B66" transform="translate(13,278)"/>
<path d="M0 0 C22.44 0 44.88 0 68 0 C68 0.33 68 0.66 68 1 C66.78517441 1.03425331 66.78517441 1.03425331 65.54580688 1.06919861 C57.92332318 1.28495324 50.3009885 1.50518804 42.67878151 1.73049068 C38.75987915 1.8461693 34.84094203 1.96009844 30.921875 2.07006836 C27.14165048 2.1762061 23.36158415 2.28688839 19.58158493 2.40075874 C18.137503 2.4434545 16.69337121 2.48449647 15.2491951 2.5238781 C13.23062223 2.57920236 11.21222669 2.64088684 9.19384766 2.70288086 C8.04357086 2.73619003 6.89329407 2.76949921 5.7081604 2.80381775 C3.03306263 2.82454336 3.03306263 2.82454336 1 4 C0.67 2.68 0.34 1.36 0 0 Z " fill="#4C5A75" transform="translate(14,7)"/>
<path d="M0 0 C1.32 0 2.64 0 4 0 C4 1.32 4 2.64 4 4 C5.32 4 6.64 4 8 4 C8 4.66 8 5.32 8 6 C9.32 6 10.64 6 12 6 C12 8.64 12 11.28 12 14 C12.66 14 13.32 14 14 14 C14 16.64 14 19.28 14 22 C10.93567306 18.32418182 8.3647563 14.52240435 5.875 10.4375 C5.19179688 9.32246094 4.50859375 8.20742188 3.8046875 7.05859375 C2.43272308 4.73338133 1.15568906 2.43647848 0 0 Z " fill="#F6F7FB" transform="translate(289,42)"/>
<path d="M0 0 C0.33 0.66 0.66 1.32 1 2 C1.8971875 1.7215625 1.8971875 1.7215625 2.8125 1.4375 C5 1 5 1 8 2 C8 2.66 8 3.32 8 4 C8.78375 4.103125 9.5675 4.20625 10.375 4.3125 C13 5 13 5 15 8 C14 9 14 9 11.05859375 9.09765625 C9.26615234 9.08025391 9.26615234 9.08025391 7.4375 9.0625 C5.64119141 9.04896484 5.64119141 9.04896484 3.80859375 9.03515625 C2.88175781 9.02355469 1.95492188 9.01195312 1 9 C1 8.01 1 7.02 1 6 C0.68578929 3.99690671 0.3548954 1.99628664 0 0 Z " fill="#C5557D" transform="translate(294,295)"/>
<path d="M0 0 C0.33333333 1.33333333 0.66666667 2.66666667 1 4 C1.20625 4.5775 1.4125 5.155 1.625 5.75 C2.01091226 8.06547358 1.83361288 9.69037236 1.5 12 C1.08119262 14.92077352 0.77692247 17.22027834 2 20 C2.66 20.33 3.32 20.66 4 21 C4 21.66 4 22.32 4 23 C4.99 23 5.98 23 7 23 C7.33 23.99 7.66 24.98 8 26 C4.7 26.66 1.4 27.32 -2 28 C-1.86189095 23.52055965 -1.71322584 19.04153217 -1.5625 14.5625 C-1.52318359 13.28310547 -1.48386719 12.00371094 -1.44335938 10.68554688 C-1.40146484 9.47060547 -1.35957031 8.25566406 -1.31640625 7.00390625 C-1.27974854 5.87799072 -1.24309082 4.7520752 -1.20532227 3.59204102 C-1 1 -1 1 0 0 Z " fill="#CA556E" transform="translate(13,278)"/>
<path d="M0 0 C0.99 0 1.98 0 3 0 C3 0.66 3 1.32 3 2 C4.98 2 6.96 2 9 2 C9 3.32 9 4.64 9 6 C10.32 6 11.64 6 13 6 C13 8.64 13 11.28 13 14 C12.56429688 13.62488281 12.12859375 13.24976563 11.6796875 12.86328125 C11.08414062 12.35152344 10.48859375 11.83976562 9.875 11.3125 C9.24207031 10.7659375 8.60914063 10.219375 7.95703125 9.65625 C6.72357227 8.61236455 5.47279309 7.58829829 4.19921875 6.59375 C2.74850041 5.45810414 1.36775234 4.23431308 0 3 C0 2.01 0 1.02 0 0 Z " fill="#FAFBFD" transform="translate(276,28)"/>
<path d="M0 0 C0.99 0.33 1.98 0.66 3 1 C3 2.32 3 3.64 3 5 C3.66 5.33 4.32 5.66 5 6 C4.34 6.66 3.68 7.32 3 8 C3.165 8.556875 3.33 9.11375 3.5 9.6875 C4.24011988 13.11055446 3.06867217 15.73112043 2 19 C1.34 18.67 0.68 18.34 0 18 C0 12.06 0 6.12 0 0 Z " fill="#993457" transform="translate(12,11)"/>
<path d="M0 0 C3.32310483 1.16757737 5.83361132 2.14948857 8 5 C8 5.99 8 6.98 8 8 C8.7425 8.226875 9.485 8.45375 10.25 8.6875 C13.57697408 10.27537399 14.81216307 12.06009412 17 15 C18.64783606 16.68528688 20.31002677 18.35697047 22 20 C21.34 20.33 20.68 20.66 20 21 C20 20.34 20 19.68 20 19 C19.38125 18.7525 18.7625 18.505 18.125 18.25 C16 17 16 17 15 14.9375 C14.67 14.298125 14.34 13.65875 14 13 C13.38382813 12.86722656 12.76765625 12.73445312 12.1328125 12.59765625 C9.41462716 11.83596695 8.59674795 10.69951046 6.875 8.5 C4.80112319 5.8119616 4.80112319 5.8119616 2 4 C2 3.34 2 2.68 2 2 C1.34 2 0.68 2 0 2 C0 1.34 0 0.68 0 0 Z " fill="#8D5978" transform="translate(147,143)"/>
<path d="M0 0 C3.96 0 7.92 0 12 0 C12 1.32 12 2.64 12 4 C13.98 4 15.96 4 18 4 C18.33 5.32 18.66 6.64 19 8 C14.65328707 6.58632741 10.3864361 5.02739359 6.125 3.375 C4.97257813 2.92898437 3.82015625 2.48296875 2.6328125 2.0234375 C1.76398438 1.68570312 0.89515625 1.34796875 0 1 C0 0.67 0 0.34 0 0 Z " fill="#EFF2F4" transform="translate(239,10)"/>
<path d="M0 0 C7.92 0 15.84 0 24 0 C24 1.32 24 2.64 24 4 C17.4084507 3.11267606 17.4084507 3.11267606 15.1875 2.5 C12.21976182 1.82165985 9.28503494 1.64995245 6.25 1.4375 C5.07953125 1.35371094 3.9090625 1.26992187 2.703125 1.18359375 C1.81109375 1.12300781 0.9190625 1.06242188 0 1 C0 0.67 0 0.34 0 0 Z " fill="#F4F5F6" transform="translate(215,6)"/>
<path d="M0 0 C0.99 0 1.98 0 3 0 C3.66 1.98 4.32 3.96 5 6 C4.01 5.67 3.02 5.34 2 5 C1.67 11.27 1.34 17.54 1 24 C0.67 24 0.34 24 0 24 C0 16.08 0 8.16 0 0 Z " fill="#713555" transform="translate(11,7)"/>
<path d="M0 0 C0.33333333 1.33333333 0.66666667 2.66666667 1 4 C1.20625 4.5775 1.4125 5.155 1.625 5.75 C2.45210509 10.71263053 1.06650365 16.12455476 0 21 C-0.33 21 -0.66 21 -1 21 C-1.02888146 17.68751813 -1.04675799 14.37506833 -1.0625 11.0625 C-1.07087891 10.11697266 -1.07925781 9.17144531 -1.08789062 8.19726562 C-1.09111328 7.29814453 -1.09433594 6.39902344 -1.09765625 5.47265625 C-1.10289307 4.64000244 -1.10812988 3.80734863 -1.11352539 2.94946289 C-1 1 -1 1 0 0 Z " fill="#B9556F" transform="translate(13,278)"/>
<path d="M0 0 C5.28 0 10.56 0 16 0 C16 0.33 16 0.66 16 1 C10.06 1.495 10.06 1.495 4 2 C3.67 2.99 3.34 3.98 3 5 C1.68 4.67 0.36 4.34 -1 4 C-0.67 2.68 -0.34 1.36 0 0 Z " fill="#556288" transform="translate(17,9)"/>
<path d="M0 0 C-5.35006016 3.28767869 -9.68368172 5.59683075 -16 6 C-15.34 5.34 -14.68 4.68 -14 4 C-13.01 4 -12.02 4 -11 4 C-11 3.34 -11 2.68 -11 2 C-9.54494642 1.47007308 -8.08581873 0.9513211 -6.625 0.4375 C-5.40683594 0.00244141 -5.40683594 0.00244141 -4.1640625 -0.44140625 C-2 -1 -2 -1 0 0 Z " fill="#5A607C" transform="translate(257,202)"/>
<path d="M0 0 C3.7952131 1.49097658 5.61042731 3.75700849 8 7 C7.01 7.495 7.01 7.495 6 8 C3.4375 6.875 3.4375 6.875 1 5 C0.1875 2.3125 0.1875 2.3125 0 0 Z " fill="#C16E85" transform="translate(248,243)"/>
<path d="M0 0 C4.59306496 1.4859916 7.43569245 3.85014682 11 7 C10.01 7.495 10.01 7.495 9 8 C7.31791365 7.02616054 5.65261839 6.02304948 4 5 C1.80869466 4.30420546 1.80869466 4.30420546 0 4 C0 2.68 0 1.36 0 0 Z " fill="#6F7899" transform="translate(266,24)"/>
<path d="M0 0 C4.6875 3.61328125 4.6875 3.61328125 6 5 C6 5.99 6 6.98 6 8 C6.66 8 7.32 8 8 8 C8 8.66 8 9.32 8 10 C6.68 9.34 5.36 8.68 4 8 C4 7.34 4 6.68 4 6 C3.01 5.67 2.02 5.34 1 5 C0.67 3.35 0.34 1.7 0 0 Z " fill="#8C5977" transform="translate(139,133)"/>
<path d="M0 0 C4.13621084 3.3810038 7.81316569 6.66590534 11 11 C5.74189816 8.85781036 2.35267403 5.07227888 0 0 Z " fill="#945473" transform="translate(51,47)"/>
<path d="M0 0 C3.96 1.98 3.96 1.98 8 4 C8 4.99 8 5.98 8 7 C6.35 6.67 4.7 6.34 3 6 C2.67 5.01 2.34 4.02 2 3 C1.34 2.67 0.68 2.34 0 2 C0 1.34 0 0.68 0 0 Z " fill="#6E7999" transform="translate(257,18)"/>
<path d="M0 0 C1.98 0 3.96 0 6 0 C6 1.65 6 3.3 6 5 C5.34 5 4.68 5 4 5 C2.61767557 3.37373596 1.28062485 1.7074998 0 0 Z " fill="#FAE9EF" transform="translate(309,302)"/>
<path d="M0 0 C2.31 1.98 4.62 3.96 7 6 C6.01 6.33 5.02 6.66 4 7 C3.34 5.68 2.68 4.36 2 3 C1.34 3 0.68 3 0 3 C0 2.01 0 1.02 0 0 Z " fill="#6D7591" transform="translate(279,33)"/>
</svg>
